<?xml version="1.0" standalone="no"?>
<!DOCTYPE svg PUBLIC "-//W3C//DTD SVG 20010904//EN"
 "http://www.w3.org/TR/2001/REC-SVG-20010904/DTD/svg10.dtd">
<svg version="1.0" xmlns="http://www.w3.org/2000/svg"
 width="432.000000pt" height="432.000000pt" viewBox="0 0 432.000000 432.000000"
 preserveAspectRatio="xMidYMid meet">

<g transform="translate(0.000000,432.000000) scale(0.100000,-0.100000)"
fill="#000000" stroke="none">
<path d="M3253 4128 c-47 -48 -64 -73 -72 -106 -5 -24 -11 -45 -13 -46 -1 -1
-17 -12 -35 -24 -24 -17 -37 -39 -54 -90 -12 -37 -26 -72 -30 -78 -6 -7 -29
-9 -58 -6 l-50 4 -6 -38 c-4 -22 -18 -90 -31 -152 -13 -63 -24 -133 -24 -158
0 -24 -5 -44 -10 -44 -6 0 -37 13 -70 30 l-59 30 -15 -55 c-17 -58 -39 -199
-55 -360 -12 -117 -51 -208 -125 -290 l-46 -50 -21 25 c-31 36 -84 154 -103
230 -20 86 -36 257 -36 402 0 113 -1 117 -22 120 -21 3 -24 10 -30 88 -10 112
-14 124 -44 157 -23 24 -25 34 -20 73 5 39 2 51 -19 80 -21 28 -25 45 -25 99
l0 66 -22 -35 c-84 -136 -253 -386 -298 -439 l-53 -64 -48 54 c-27 30 -68 79
-91 109 -23 30 -45 59 -49 64 -8 9 -56 -20 -101 -62 -35 -32 -57 -26 -128 33
-78 65 -103 78 -133 64 -18 -8 -30 -8 -45 0 -11 6 -41 11 -67 11 -48 0 -92 17
-114 44 -8 9 -28 16 -46 16 l-32 0 14 -92 c7 -51 27 -132 43 -181 17 -48 30
-104 30 -125 0 -20 7 -59 15 -86 8 -27 15 -67 15 -88 l0 -39 -116 -54 -115
-54 62 -80 c40 -53 72 -84 93 -91 17 -6 47 -26 66 -45 19 -19 64 -49 100 -68
57 -29 65 -37 65 -62 0 -44 -57 -77 -227 -135 -171 -58 -258 -97 -312 -141
l-38 -32 88 -32 c84 -30 89 -34 92 -64 3 -31 4 -31 58 -31 64 0 72 -11 51 -63
l-15 -35 76 -7 c77 -7 230 -33 244 -41 4 -3 -2 -25 -12 -49 l-19 -45 87 0 c48
-1 104 -7 124 -14 64 -23 230 -129 218 -139 -3 -2 -150 -1 -328 2 l-322 6 0
-49 0 -48 -127 3 -128 4 -3 -25 c-2 -14 -7 -28 -10 -32 -4 -3 -83 -11 -177
-17 -93 -6 -203 -14 -242 -17 l-73 -6 156 -120 155 -120 -21 -23 -21 -22 63
-23 c147 -54 194 -90 212 -161 9 -40 67 -59 174 -59 97 0 161 -13 179 -38 18
-23 17 -26 -27 -78 -35 -39 -130 -209 -130 -230 0 -4 55 -4 122 0 106 7 129
11 179 37 68 34 69 34 69 14 0 -20 4 -19 90 14 122 46 120 46 120 17 0 -23 6
-21 150 61 83 47 153 83 157 80 8 -9 -29 -221 -77 -440 -23 -104 -39 -191 -36
-194 11 -11 203 139 350 275 83 76 116 93 141 72 12 -10 20 -9 39 3 32 22 57
65 101 174 20 51 42 97 50 103 9 8 21 0 49 -30 l36 -40 11 27 c18 48 49 186
55 251 4 34 10 62 13 62 3 0 38 -58 77 -128 39 -70 120 -212 179 -317 117
-207 339 -636 376 -727 12 -32 26 -58 30 -58 4 0 43 19 87 43 l81 43 -81 129
c-226 365 -648 1081 -648 1100 0 4 113 4 251 0 l252 -8 -7 27 c-3 14 -9 45
-12 69 l-6 42 83 0 c46 0 135 7 197 14 l114 14 -6 27 c-3 15 -8 39 -11 53 -11
42 19 60 143 86 61 13 118 28 126 35 8 6 19 27 23 46 8 32 19 40 147 109 l139
74 -159 38 c-326 77 -532 154 -564 211 -15 27 -14 28 61 105 97 100 119 130
119 163 0 22 8 30 40 45 59 27 131 109 173 198 21 44 67 124 103 180 85 133
107 125 -275 101 l-94 -6 6 38 c14 91 28 263 25 308 -3 48 -4 50 -43 60 l-40
12 -3 133 c-2 126 -4 136 -28 164 -39 46 -56 86 -49 115 3 15 1 52 -5 82 -11
58 -61 200 -70 200 -3 0 -33 -28 -67 -62z m-73 -688 c-39 -244 -70 -445 -70
-446 0 -1 66 64 146 145 80 80 143 139 138 131 -18 -35 -127 -171 -194 -242
-39 -43 -67 -78 -61 -78 12 0 71 20 184 64 37 14 67 24 67 22 0 -3 -54 -33
-121 -67 -66 -35 -138 -79 -160 -98 -38 -35 -41 -43 -89 -221 -27 -102 -56
-207 -64 -235 -8 -27 -14 -50 -13 -51 3 -4 283 211 351 270 48 40 67 68 116
165 61 121 74 127 40 19 -11 -34 -20 -64 -20 -66 0 -2 76 49 170 113 93 63
178 118 187 121 30 10 -94 -100 -219 -193 -64 -49 -114 -89 -110 -90 4 -1 29
-4 57 -8 60 -8 48 -17 -52 -38 -83 -17 -82 -17 -368 -240 -104 -82 -200 -163
-211 -181 -12 -18 -36 -66 -54 -107 -34 -79 -191 -502 -187 -505 6 -4 230 124
246 141 11 12 30 69 46 133 15 62 30 114 34 117 4 2 1 -41 -7 -96 -8 -55 -12
-102 -9 -105 6 -7 262 43 295 56 16 7 36 39 64 100 57 125 60 113 12 -52 -4
-14 33 -7 226 43 127 32 237 59 243 58 24 -1 -103 -52 -269 -108 l-171 -58 61
-33 c71 -40 63 -48 -19 -20 -32 11 -70 20 -84 20 -40 0 -272 -53 -264 -60 5
-4 49 -17 98 -30 50 -13 97 -27 105 -32 22 -13 -130 -1 -226 19 l-80 16 -65
-34 c-35 -19 -119 -65 -185 -103 l-121 -67 -337 -404 c-186 -223 -346 -415
-356 -427 -40 -48 -18 2 38 85 74 111 209 284 378 487 74 89 133 164 131 166
-2 2 -104 -37 -228 -86 -123 -49 -215 -83 -204 -75 10 9 106 61 212 118 l193
102 -112 3 c-62 1 -167 -2 -234 -7 l-120 -10 -340 -217 c-186 -119 -346 -219
-354 -222 -27 -10 21 38 105 103 83 65 271 189 438 291 97 58 98 59 67 67 -17
4 -154 7 -303 5 l-272 -3 -170 -72 c-243 -102 -260 -98 -40 11 l190 94 -45 6
c-25 3 -109 11 -186 17 l-141 11 -94 -30 c-180 -57 -196 -52 -47 15 l86 39
-91 23 c-122 31 -280 81 -292 92 -6 6 2 7 20 4 17 -3 119 -21 227 -39 l198
-33 -32 56 c-17 31 -36 62 -41 69 -5 7 -7 15 -5 18 3 3 45 -31 92 -75 59 -55
97 -82 119 -86 28 -5 609 -45 640 -45 18 1 -50 41 -213 127 -152 80 -274 153
-267 159 7 7 350 -146 487 -218 l135 -70 255 -9 c140 -4 301 -8 358 -9 l103 0
-45 88 -46 87 -404 215 c-223 118 -404 215 -402 217 1 2 164 -64 361 -147 198
-83 362 -149 366 -148 9 4 -159 311 -187 342 -14 17 -61 32 -193 65 -350 85
-560 131 -600 131 -23 0 -69 -11 -103 -25 -83 -34 -94 -31 -29 7 64 37 61 40
-74 57 -203 26 -306 44 -297 53 11 11 246 -7 427 -33 77 -11 286 -49 464 -84
179 -36 326 -63 327 -62 3 3 -241 349 -265 375 -15 16 -31 22 -64 22 -54 0
-340 29 -346 36 -2 2 75 4 172 4 97 0 177 3 177 6 0 3 -32 43 -71 90 -83 98
-60 88 -384 159 -115 26 -216 51 -225 56 -17 11 -32 13 260 -35 113 -19 207
-32 208 -31 5 5 -134 199 -152 214 -8 6 -54 19 -102 27 -49 9 -91 18 -94 21
-3 3 32 3 78 1 57 -3 81 -1 79 6 -4 12 -123 76 -176 94 -52 18 -34 21 46 8
l71 -13 -26 41 c-14 23 -59 92 -99 155 -41 62 -72 115 -70 117 8 9 157 -156
212 -235 31 -44 60 -79 65 -76 4 3 11 39 15 82 8 89 19 81 30 -22 14 -144 29
-180 126 -289 l44 -50 6 65 c4 35 7 125 8 198 1 85 5 131 10 125 16 -15 31
-133 31 -241 0 -119 12 -183 50 -267 l27 -61 12 70 c19 111 71 339 79 347 4 4
2 -43 -5 -105 -15 -136 -17 -356 -3 -392 10 -26 227 -315 237 -315 6 0 -5 359
-13 408 -3 21 -26 56 -64 99 -86 97 -81 101 29 27 19 -13 36 -22 38 -20 2 2 8
59 14 127 5 68 16 171 24 229 9 66 11 108 5 115 -6 7 -28 20 -50 30 -22 10
-40 22 -40 28 0 9 53 3 85 -9 15 -6 16 0 41 166 13 84 20 108 25 90 12 -42 10
-160 -7 -349 -8 -100 -14 -189 -12 -198 2 -12 17 5 43 49 21 37 40 66 42 64 6
-6 -42 -127 -76 -192 -21 -39 -34 -81 -38 -120 l-5 -59 69 68 c37 37 72 67 76
67 4 0 -23 -46 -60 -102 l-68 -101 1 -166 c1 -91 7 -207 13 -257 11 -90 12
-93 134 -313 l122 -222 16 163 c9 90 20 198 24 241 4 43 9 76 12 73 3 -2 8
-141 13 -308 l8 -303 63 -114 c49 -89 64 -110 70 -95 4 11 37 97 74 192 52
138 65 180 60 205 -4 18 -32 78 -62 135 -30 56 -50 102 -44 102 5 0 37 -38 71
-85 34 -47 63 -85 66 -85 7 0 64 132 64 147 0 8 -23 43 -52 77 -46 55 -116
181 -106 191 2 2 45 -49 94 -114 l90 -119 38 124 c52 169 51 202 -7 344 -47
118 -100 286 -94 303 1 5 21 -30 44 -79 23 -49 65 -138 94 -199 l53 -110 23
75 c32 104 30 139 -11 202 -18 29 -46 78 -61 108 l-27 55 70 -68 69 -69 7 32
c13 68 7 97 -30 141 -36 43 -84 129 -84 149 0 7 36 -21 80 -61 44 -40 82 -70
84 -68 6 7 26 145 26 183 0 25 -16 64 -50 124 -27 48 -50 92 -50 96 0 4 28
-18 63 -48 l62 -56 7 27 c3 16 16 78 27 139 20 109 68 280 77 272 2 -3 -28
-204 -66 -448z"/>
</g>
</svg>
